<?xml version="1.0" encoding="utf-8"?>
<!-- Generator: Adobe Illustrator 22.0.0, SVG Export Plug-In . SVG Version: 6.00 Build 0)  -->
<svg version="1.1" id="Layer_1" xmlns="http://www.w3.org/2000/svg" xmlns:xlink="http://www.w3.org/1999/xlink" x="0px" y="0px"
	 viewBox="0 0 129.4 43.1" style="enable-background:new 0 0 129.4 43.1;" xml:space="preserve">
<style type="text/css">
	.st0{fill:#FFFFFF;}
</style>
<title>Artboard 1 copy</title>
<path class="st0" d="M62.5,8.7c0-0.3-0.1-0.5-0.3-0.7c-0.2-0.2-0.5-0.3-0.7-0.3h-3.5v10.1c0,0.3,0.1,0.6,0.4,0.7
	c0.2,0.2,0.5,0.3,0.8,0.3h0.3V19h-4.1v-0.2h0.2c0.3,0,0.6-0.1,0.8-0.3c0.2-0.2,0.4-0.4,0.4-0.7V7.6h-3.5c-0.3,0-0.5,0.1-0.7,0.3
	c-0.2,0.2-0.3,0.4-0.3,0.7v0.3h-0.2V6.8c0.3,0.1,0.6,0.2,1,0.2c0.4,0.1,0.8,0.1,1.3,0.1h6.3c0.5,0,1,0,1.5-0.1
	c0.4-0.1,0.6-0.2,0.7-0.2V9h-0.2L62.5,8.7z"/>
<path class="st0" d="M64.7,18.8c0.3,0,0.6-0.1,0.8-0.3c0.2-0.2,0.4-0.5,0.4-0.7V8.3c0-0.3-0.2-0.5-0.4-0.7c-0.2-0.2-0.5-0.3-0.8-0.3
	h-0.2V7.1h5.4c0.4,0,0.8,0,1.3-0.1c0.3,0,0.6-0.1,1-0.2V9h-0.2V8.7c0-0.3-0.1-0.5-0.3-0.7c-0.2-0.2-0.5-0.3-0.7-0.3h-3.8v5.2h3.1
	c0.2,0,0.5-0.1,0.6-0.2c0.2-0.2,0.3-0.4,0.3-0.6v-0.2h0.2v2.7h-0.2v-0.3c0-0.2-0.1-0.4-0.3-0.6c-0.2-0.2-0.4-0.3-0.6-0.3h-3.2v5.1
	h2.7c0.7,0,1.5-0.1,2.1-0.6c0.5-0.5,0.9-1,1.2-1.7h0.2L72.2,19h-7.7v-0.2L64.7,18.8z"/>
<path class="st0" d="M87.7,18.8h0.2V19h-4.2v-0.2h0.2c0.2,0,0.4-0.1,0.6-0.2c0.1-0.1,0.2-0.3,0.2-0.4c0-0.1,0-0.3-0.1-0.4l-1.2-2.9
	h-5L77,17.8C77,17.9,77,18,77,18.2c0,0.2,0.1,0.3,0.2,0.4c0.2,0.2,0.4,0.2,0.6,0.2h0.2V19h-3.7v-0.2h0.2c0.3,0,0.6-0.1,0.9-0.3
	c0.3-0.2,0.6-0.5,0.7-0.8l4.2-9.1c0.3-0.5,0.6-1.1,0.7-1.7H81l5,10.9c0.2,0.3,0.4,0.6,0.7,0.8C87,18.8,87.3,18.8,87.7,18.8z
	 M78.5,14.4h4.6l-2.2-5.4L78.5,14.4z"/>
<path class="st0" d="M97.8,8.7c0-0.3-0.1-0.5-0.3-0.7c-0.2-0.2-0.5-0.3-0.7-0.3h-3.5v10.1c0,0.3,0.1,0.6,0.4,0.7
	c0.2,0.2,0.5,0.3,0.8,0.3h0.2V19h-4.1v-0.2h0.2c0.3,0,0.6-0.1,0.8-0.3c0.2-0.2,0.4-0.4,0.4-0.7V7.6h-3.5c-0.3,0-0.5,0.1-0.7,0.3
	c-0.2,0.2-0.3,0.4-0.3,0.7v0.3h-0.2V6.8c0.3,0.1,0.6,0.2,1,0.2c0.4,0.1,0.8,0.1,1.3,0.1h6.2c0.5,0,1,0,1.5-0.1
	c0.3,0,0.6-0.1,0.8-0.2V9h-0.2L97.8,8.7z"/>
<path class="st0" d="M103.6,7.7h-1.2v10.1c0,0.3,0.1,0.6,0.3,0.7c0.2,0.2,0.5,0.3,0.8,0.3h0.3V19h-4.1v-0.2h0.2
	c0.3,0,0.6-0.1,0.8-0.3c0.2-0.2,0.4-0.5,0.4-0.7V8.4c0-0.3-0.1-0.6-0.4-0.7c-0.2-0.2-0.5-0.3-0.8-0.3h-0.2V7.1h5
	c1-0.1,1.9,0.2,2.7,0.9c0.6,0.6,1,1.4,1,2.2c0,0.9-0.3,1.7-0.9,2.3c-0.6,0.6-1.4,1-2.2,1c0.2,0.1,0.5,0.3,0.7,0.5
	c0.2,0.2,0.5,0.5,0.7,0.7c1.1,1.4,1.8,2.2,2.1,2.6c0.3,0.3,0.6,0.5,0.7,0.7l0.4,0.4c0.2,0.1,0.3,0.2,0.5,0.3
	c0.4,0.2,0.8,0.2,1.2,0.2V19h-1c-0.5,0-1-0.1-1.5-0.3c-0.4-0.1-0.7-0.3-1-0.5c-0.2-0.2-0.4-0.4-0.6-0.5c-0.2-0.2-0.6-0.8-1.4-1.8
	c-0.8-1-1.2-1.6-1.3-1.7l-0.4-0.4c-0.3-0.3-0.7-0.5-1.2-0.6V13c0.1,0,0.3,0,0.4,0c0.2,0,0.4,0,0.6,0c1.3,0.2,2.5-0.6,2.9-1.8
	c0.1-0.2,0.1-0.4,0.1-0.6v-0.4c0-0.7-0.2-1.3-0.7-1.8c-0.4-0.5-1-0.7-1.7-0.7L103.6,7.7z"/>
<path class="st0" d="M113.4,8.6c2.8-2.3,6.9-2.3,9.7,0c1.2,1.1,1.9,2.8,1.9,4.4c0.1,1.7-0.6,3.3-1.9,4.5c-2.8,2.3-6.9,2.3-9.7,0
	c-1.2-1.1-1.9-2.8-1.9-4.5C111.5,11.4,112.2,9.8,113.4,8.6z M114.5,17.2c2.1,2.1,5.5,2.1,7.6,0c1-1.1,1.5-2.6,1.5-4.1
	c0-1-0.2-2-0.7-3c-0.4-0.8-1.1-1.5-1.9-2c-0.8-0.5-1.8-0.7-2.8-0.7c-1.5-0.1-2.9,0.5-3.9,1.6c-1,1.1-1.5,2.6-1.4,4.1
	C112.9,14.6,113.4,16,114.5,17.2L114.5,17.2z"/>
<path class="st0" d="M53.8,35.1c-1.3-1.2-2-2.9-2-4.7c-0.1-1.8,0.6-3.5,2-4.7c1.4-1.2,3.3-1.9,5.2-1.8c1.6,0,3.3,0.4,4.7,1.2
	l0.4,2.5h-0.2c-0.3-1-0.9-1.8-1.8-2.3c-0.9-0.6-2-0.9-3.2-0.8c-1.6-0.1-3.1,0.5-4.1,1.6c-1.1,1.2-1.6,2.7-1.5,4.3
	c-0.1,1.6,0.5,3.2,1.5,4.3c1,1.1,2.5,1.7,4,1.7c1.3,0,2.6-0.3,3.7-1.1c1.2-1,1.9-2.4,1.9-3.9h0.2l-0.2,2.8c-1.3,1.8-3.4,2.8-5.6,2.7
	C57,37.1,55.2,36.4,53.8,35.1z"/>
<path class="st0" d="M69,25.7c3-2.4,7.3-2.4,10.3,0c1.3,1.2,2,2.9,2,4.7c0.1,1.8-0.6,3.6-1.9,4.8c-3,2.4-7.3,2.4-10.3,0
	c-1.3-1.2-2-3-2-4.7C67,28.6,67.7,26.9,69,25.7z M70.1,34.8c2.3,2.2,5.8,2.2,8.1,0c1.1-1.2,1.6-2.8,1.5-4.4c0-1.1-0.2-2.2-0.7-3.1
	c-0.4-0.9-1.1-1.6-2-2.1c-0.9-0.5-1.9-0.8-2.9-0.7c-1.5-0.1-3,0.5-4.1,1.7c-1.1,1.2-1.6,2.8-1.5,4.3C68.4,32,69,33.6,70.1,34.8z"/>
<path class="st0" d="M83.3,36.5c0.3,0,0.6-0.1,0.9-0.3c0.2-0.2,0.4-0.5,0.4-0.8v-10c0-0.3-0.2-0.6-0.4-0.8c-0.2-0.2-0.6-0.3-0.9-0.3
	H83v-0.2h4.3v0.2h-0.3c-0.4,0-0.9,0.2-1.1,0.6c-0.1,0.2-0.2,0.4-0.2,0.6v10.7h2.8c0.8,0,1.6-0.2,2.2-0.6c0.6-0.5,1-1.1,1.3-1.8h0.2
	l-1.2,2.9H83v-0.2H83.3z"/>
<path class="st0" d="M96.1,25.7c3-2.4,7.3-2.4,10.3,0c1.3,1.2,2,2.9,2,4.7c0.1,1.8-0.7,3.5-2,4.7c-3,2.4-7.3,2.4-10.3,0
	c-1.3-1.2-2-3-2-4.7C94,28.6,94.8,26.9,96.1,25.7z M97.2,34.8c2.3,2.2,5.8,2.2,8.1,0c1.1-1.2,1.6-2.8,1.5-4.4c0-1.1-0.2-2.2-0.7-3.1
	c-0.4-0.9-1.1-1.6-2-2.1c-0.9-0.5-1.9-0.8-2.9-0.7c-1.5-0.1-3,0.5-4,1.7c-1,1.2-1.6,2.8-1.5,4.3C95.6,32,96.1,33.6,97.2,34.8z
	 M101.2,23l-0.1-0.1c1-1,1.8-1.8,2.5-2.3c0.3,0.3,0.6,0.6,0.8,1C103.5,21.9,102.5,22.4,101.2,23z"/>
<path class="st0" d="M124.4,24.3c-0.3,0-0.6,0.1-0.9,0.3c-0.2,0.2-0.4,0.5-0.4,0.8v9.3c0,0.7,0,1.3,0.1,2v0.3h-0.2l-10.8-10.5v8.9
	c0,0.4,0.3,0.8,0.6,0.9c0.2,0.1,0.4,0.2,0.6,0.2h0.4v0.2h-4.1v-0.2h0.4c0.3,0,0.6-0.1,0.8-0.3c0.2-0.2,0.4-0.5,0.4-0.8v-9.4
	c0-0.7,0-1.3-0.1-2v-0.3h0.2l10.8,10.5v-8.9c0-0.3-0.1-0.6-0.4-0.8c-0.2-0.2-0.5-0.3-0.9-0.3h-0.4v-0.2h4.1v0.2H124.4z"/>
<path class="st0" d="M38.8,7.4c1.1-0.2,1.9-1.2,1.8-2.3c-0.2-1.1-1.2-1.9-2.3-1.8c-1.1,0.2-1.9,1.2-1.8,2.3
	C36.6,6.8,37.6,7.6,38.8,7.4C38.8,7.4,38.8,7.4,38.8,7.4z M38.3,4.2c0.6-0.1,1.2,0.4,1.3,1c0.1,0.6-0.4,1.2-1,1.3
	c-0.6,0.1-1.2-0.4-1.3-1c0,0,0,0,0,0C37.2,4.9,37.7,4.3,38.3,4.2z"/>
<path class="st0" d="M30,9.8c1.1-0.4,1.6-1.6,1.2-2.7s-1.6-1.6-2.7-1.2c-1.1,0.4-1.6,1.6-1.2,2.7C27.7,9.7,28.9,10.2,30,9.8
	C30,9.8,30,9.8,30,9.8z M28.8,6.8c0.6-0.2,1.3,0,1.5,0.6c0.2,0.6,0,1.3-0.6,1.5c-0.6,0.2-1.3,0-1.5-0.6c0,0,0,0,0,0
	C27.9,7.7,28.2,7,28.8,6.8z"/>
<path class="st0" d="M22.2,14.3c1-0.6,1.3-1.9,0.7-2.8s-1.9-1.3-2.8-0.7c-0.1,0.1-0.3,0.2-0.4,0.3c-0.9,0.7-1.1,2-0.4,2.9
	C20,14.9,21.3,15,22.2,14.3L22.2,14.3z M20.2,11.7c0.5-0.4,1.2-0.3,1.6,0.2c0.4,0.5,0.3,1.2-0.2,1.6c-0.5,0.4-1.2,0.3-1.6-0.2
	C19.6,12.9,19.7,12.1,20.2,11.7C20.2,11.7,20.2,11.7,20.2,11.7z"/>
<path class="st0" d="M12.9,21.1c0.9,0.7,2.2,0.6,2.9-0.3c0.7-0.9,0.6-2.2-0.3-2.9c-0.9-0.7-2.2-0.6-2.9,0.3c0,0,0,0,0,0
	C11.8,19,12,20.4,12.9,21.1C12.9,21.1,12.9,21.1,12.9,21.1z M13.2,18.7c0.3-0.6,1-0.8,1.6-0.5c0.6,0.3,0.8,1,0.5,1.6
	c-0.1,0.1-0.1,0.2-0.2,0.3c-0.4,0.5-1.1,0.6-1.6,0.2C12.9,19.9,12.8,19.2,13.2,18.7L13.2,18.7z"/>
<path class="st0" d="M8.5,29.7c1.1,0.4,2.3-0.1,2.7-1.2s-0.1-2.3-1.2-2.7c-1.1-0.4-2.3,0.1-2.7,1.2C6.9,28,7.5,29.2,8.5,29.7
	C8.5,29.7,8.5,29.7,8.5,29.7z M8.3,27.3c0.2-0.6,0.9-0.9,1.5-0.7c0.6,0.2,0.9,0.9,0.7,1.5c-0.2,0.6-0.9,0.9-1.5,0.7c0,0,0,0,0,0
	C8.3,28.6,8,27.9,8.3,27.3C8.3,27.3,8.3,27.3,8.3,27.3L8.3,27.3z"/>
<path class="st0" d="M6.6,39.1c1.1,0.2,2.2-0.7,2.3-1.8c0.2-1.1-0.7-2.2-1.8-2.3c-1.1-0.2-2.2,0.6-2.3,1.8
	C4.6,37.9,5.4,38.9,6.6,39.1C6.6,39.1,6.6,39.1,6.6,39.1z M5.7,36.8c0.1-0.6,0.7-1.1,1.3-1s1.1,0.7,1,1.3c-0.1,0.6-0.7,1.1-1.3,1
	C6,38,5.6,37.4,5.7,36.8C5.7,36.8,5.7,36.8,5.7,36.8z"/>
<path class="st0" d="M43.8,0.9h-0.5c-0.6,0-1.2,0.4-1.5,0.9c-2-1.8-5-1.7-6.9,0.3c-0.2,0.2-0.4,0.5-0.6,0.7
	c-0.6-0.7-1.6-0.8-2.3-0.2c-0.3,0.3-0.5,0.6-0.6,1c-2.4-1.3-5.3-0.4-6.6,2c-0.2,0.3-0.3,0.6-0.4,0.9c-0.3-0.2-0.6-0.3-0.9-0.3
	c-0.9,0-1.6,0.7-1.6,1.6c0,0,0,0.1,0,0.2c-2.6-0.6-5.2,1-5.8,3.6c-0.1,0.3-0.1,0.7-0.1,1c-0.2-0.1-0.4-0.1-0.6-0.1
	c-0.9,0-1.6,0.7-1.6,1.6c0,0,0,0,0,0c0,0.2,0,0.4,0.1,0.6c-2.7,0.1-4.8,2.3-4.7,5c0,0.3,0.1,0.6,0.1,1H9.3c-0.9,0-1.6,0.7-1.6,1.6
	c0,0,0,0,0,0c0,0.3,0.1,0.7,0.3,0.9c-1.4,0.4-2.5,1.4-3.1,2.8c-0.6,1.3-0.5,2.9,0.2,4.2c-0.8,0.1-1.4,0.8-1.3,1.6
	c0,0.5,0.3,0.9,0.6,1.2c-2.3,1.4-3,4.4-1.6,6.7c0.2,0.3,0.4,0.5,0.6,0.7c-0.6,0.3-1,0.8-0.9,1.5l0,0v0.5h41.4V0.9z M10.2,33.5
	c2.6,0.5,4.8,2.3,5.9,4.7c-1.6,2.1-4.2,3.2-6.8,3c2.3-1.3,3.2-4.3,1.8-6.6C10.8,34.2,10.5,33.8,10.2,33.5z M13.5,25.2
	c2.4,1.2,4,3.4,4.4,6.1c-2.1,1.6-4.9,2-7.4,1.2c2.6-0.6,4.2-3.3,3.6-5.9C13.9,26.1,13.7,25.6,13.5,25.2z M42.7,21.9
	c-0.5-0.5-1.1-0.8-1.8-0.8l-0.8-5.8l0.5-0.4c0.9-0.8,1.6-1.8,2.1-2.9L42.7,21.9z M38.3,23.2c-0.6-0.7-1.6-1-2.6-0.8l-2.2-5.4
	c0.1-0.2,0.2-0.3,0.3-0.5c0.9-1.4,1.4-3,1.4-4.6c0.9,1.4,2.1,2.5,3.5,3.2l0.5,0.2l0.8,5.8C39.2,21.5,38.5,22.2,38.3,23.2z
	 M25.4,37.7c0.9,0.1,1.6,1,1.5,2c-0.1,0.9-1,1.6-2,1.5c-0.9-0.1-1.6-1-1.5-1.9C23.6,38.2,24.5,37.6,25.4,37.7z M25.8,36.4
	c-0.9-0.4-1.3-1.4-0.9-2.3s1.4-1.3,2.3-0.9l0,0c0.9,0.4,1.3,1.4,0.9,2.3C27.7,36.4,26.6,36.8,25.8,36.4z M21.4,19.9
	c1.4,0.8,3.1,1.1,4.7,1l0.6-0.1l3.5,4.6c-0.7,0.7-0.9,1.7-0.6,2.7c-0.9-0.3-1.9-0.1-2.6,0.6l-4.6-3.5c0-0.2,0-0.4,0-0.6
	C22.5,23,22.1,21.4,21.4,19.9z M27.8,32.1c-0.8-0.6-0.9-1.7-0.3-2.4c0.6-0.8,1.7-0.9,2.4-0.3c0.8,0.6,0.9,1.7,0.3,2.4c0,0,0,0,0,0
	C29.6,32.5,28.5,32.7,27.8,32.1z M30.8,28.4c-0.6-0.8-0.4-1.8,0.3-2.4s1.8-0.4,2.4,0.3c0.6,0.8,0.4,1.8-0.3,2.4c0,0,0,0,0,0
	C32.5,29.3,31.4,29.2,30.8,28.4C30.8,28.4,30.8,28.4,30.8,28.4L30.8,28.4z M34.7,25.6c-0.4-0.9,0.1-1.9,0.9-2.3s1.9,0.1,2.3,0.9
	c0.4,0.9-0.1,1.9-0.9,2.3c0,0,0,0,0,0C36.1,26.9,35.1,26.5,34.7,25.6C34.7,25.6,34.7,25.6,34.7,25.6L34.7,25.6z M40.6,22
	c0.9-0.1,1.8,0.5,2,1.5c0.1,0.9-0.5,1.8-1.5,2s-1.8-0.5-2-1.5c0,0,0,0,0,0C39.1,23,39.7,22.1,40.6,22z M39.7,14.5
	c-2.4-1.1-4.2-3.3-4.7-5.9c1.9,1.9,4.9,2,6.9,0.2c0.4-0.3,0.7-0.7,0.9-1.2C43,10.3,41.8,12.9,39.7,14.5z M33.9,9
	c0.8,2.5,0.4,5.3-1.2,7.4c-2.6-0.4-4.9-2-6.1-4.4c2.3,1.4,5.3,0.7,6.7-1.6C33.6,9.9,33.8,9.5,33.9,9z M32.1,17.2
	c0.2,0,0.4,0.1,0.6,0.1l2.2,5.4c-0.8,0.5-1.3,1.4-1.3,2.4c-0.8-0.5-1.8-0.6-2.7-0.2l-3.5-4.6c0.1-0.2,0.1-0.4,0.2-0.6
	c0.5-1.6,0.6-3.2,0.2-4.8C29,16.1,30.5,16.9,32.1,17.2z M25.8,12.5c1.5,2.2,1.8,5,0.8,7.5c-2.6,0.3-5.3-0.7-7-2.7
	c2.6,0.8,5.3-0.7,6-3.3C25.7,13.5,25.8,13,25.8,12.5L25.8,12.5z M18.7,18c2,1.7,3,4.4,2.7,7c-2.5,1-5.2,0.7-7.4-0.8
	c2.7,0.1,4.9-2.1,5-4.7C19,19.1,18.9,18.5,18.7,18L18.7,18z M21.2,26.1c0.2-0.1,0.4-0.1,0.5-0.2l4.6,3.5c-0.5,0.9-0.4,2,0.2,2.8
	c-1-0.1-1.9,0.4-2.4,1.2l-5.4-2.2c0-0.2,0-0.4-0.1-0.6c-0.4-1.6-1.1-3.1-2.2-4.3C18.1,26.7,19.7,26.6,21.2,26.1L21.2,26.1z
	 M17.9,32.3l0.5-0.3l5.4,2.2c-0.2,1,0.1,2,0.9,2.6c-0.9,0.2-1.7,0.9-2,1.8l-5.8-0.8c-0.1-0.2-0.2-0.4-0.2-0.5
	c-0.7-1.4-1.9-2.7-3.2-3.5C15,33.7,16.6,33.2,17.9,32.3L17.9,32.3z M16.3,39.2l0.4-0.4l5.8,0.8c0,0.7,0.3,1.3,0.8,1.8h-9.8
	C14.6,40.8,15.6,40.1,16.3,39.2L16.3,39.2z M26.9,37.4c1.4-0.3,2.4-1.7,2.1-3.1c0-0.1,0-0.1-0.1-0.2l7.1,4.1c-0.5,1-0.8,2.1-0.9,3.2
	H27c0.4-0.4,0.7-1,0.8-1.6C27.9,38.9,27.6,38,26.9,37.4L26.9,37.4z M36.5,37.3l-7-4.1c0.6-0.2,1.1-0.5,1.5-1
	c0.5-0.7,0.7-1.6,0.4-2.5c0.8,0.3,1.8,0.1,2.5-0.4c0.5-0.4,0.9-0.9,1.1-1.5l4.1,7.1C38,35.6,37.2,36.4,36.5,37.3L36.5,37.3z
	 M39.6,34.5l-4.1-7c1.4,0.4,2.9-0.4,3.3-1.8c0-0.1,0-0.1,0-0.2c0.6,0.7,1.5,1,2.3,0.9c0.6-0.1,1.2-0.4,1.6-0.8v8.2
	C41.7,33.8,40.6,34.1,39.6,34.5L39.6,34.5z M38,1.5c2.1-0.3,4.1,1.2,4.4,3.4C42.7,7,41.1,9,39,9.2c-2.1,0.3-4.1-1.2-4.4-3.4
	C34.3,3.7,35.8,1.7,38,1.5z M27.8,4.2c2-0.8,4.3,0.1,5.1,2.1s-0.1,4.3-2.1,5.1s-4.3-0.1-5.1-2.1c0,0,0,0,0,0
	C24.8,7.3,25.8,5,27.8,4.2z M18.5,9.5c1.7-1.3,4.2-1,5.5,0.7s1,4.2-0.7,5.5c-1.7,1.3-4.2,1-5.5-0.7c0,0,0,0,0,0
	C16.5,13.3,16.8,10.8,18.5,9.5C18.5,9.5,18.5,9.5,18.5,9.5z M11,17c1.3-1.7,3.8-2.1,5.5-0.7s2.1,3.8,0.7,5.5
	c-1.3,1.7-3.8,2.1-5.5,0.7c0,0,0,0,0,0C10,21.2,9.7,18.7,11,17z M5.7,26.3c0.8-2,3.1-3,5.1-2.2c2,0.8,3,3.1,2.2,5.1
	c-0.8,2-3.1,3-5.1,2.2c0,0,0,0,0,0C5.9,30.5,4.9,28.3,5.7,26.3z M3,36.5c0.3-2.1,2.3-3.7,4.4-3.4c2.1,0.3,3.7,2.3,3.4,4.4
	c-0.3,2.1-2.2,3.7-4.4,3.4C4.2,40.6,2.7,38.6,3,36.5z M36.1,41.3c0.2-3.6,3.1-6.5,6.7-6.7v6.7H36.1z"/>
<rect x="49.3" y="41.3" class="st0" width="78.4" height="0.9"/>
<rect x="49.3" y="0.9" class="st0" width="78.4" height="0.9"/>
</svg>
